<svg id="Livello_1" xmlns="http://www.w3.org/2000/svg" viewBox="0 0 28.3 30.7" enable-background="new 0 0 28.3 30.7"><style>.st0{fill:#e7e3f1}.st2{fill:#fff}</style><g id="Symbols"><g id="Cta_share" transform="translate(0 -11)"><g id="ornamento_1" transform="matrix(0 1 1 0 0 11)"><g id="Group-10"><path id="Fill-1" class="st0" d="M18.4 3.8l-3-3.8-3 3.8 3 4.5 3-4.5zm-.9 0l-2.1 3.1-2.1-3.1 2.1-2.6 2.1 2.6z"/><path id="Fill-2" class="st0" d="M15.4 28.3l3-4.5-3-3.8-3 3.8 3 4.5zm2.1-4.5l-2.1 3.1-2.1-3.1 2.1-2.6 2.1 2.6z"/><defs><filter id="Adobe_OpacityMaskFilter" filterUnits="userSpaceOnUse"><feColorMatrix values="1 0 0 0 0 0 1 0 0 0 0 0 1 0 0 0 0 0 1 0"/></filter></defs><mask maskUnits="userSpaceOnUse" id="mask-2_1_"><g filter="url(#Adobe_OpacityMaskFilter)"><path id="path-1_1_" class="st2" d="M30.7 20H16.3V4.4h14.4z"/></g></mask><path id="Fill-3" d="M23 14.6c1.3 0 2.4 1 2.4 2.3 0 1.1-.8 2.1-1.9 2.3-.2 0-.4 0-.5.1-1.3 0-2.3-1.1-2.3-2.3-.1-1.4.9-2.4 2.3-2.4m-5.2 3.2C19 19.2 21 20 22.9 20c.2 0 .4 0 .6-.1h.2c1.3-.4 2.3-1.5 2.3-3 0-1.7-1.4-3.1-3.1-3.1s-3.1 1.4-3.1 3.1c0 .7.3 1.4.7 1.9-.8-.3-1.6-.8-2.1-1.5-1.9-2.2-1.3-5.3-.9-6.6 1.5-5.6 6.8-5.6 12.9-5.6h.4v-.7H30c-6 0-11.6.1-13.2 6.1-.9 2.9-.5 5.6 1 7.3" mask="url(#mask-2_1_)" fill="#e7e3f1"/><defs><filter id="Adobe_OpacityMaskFilter_1_" filterUnits="userSpaceOnUse"><feColorMatrix values="1 0 0 0 0 0 1 0 0 0 0 0 1 0 0 0 0 0 1 0"/></filter></defs><mask maskUnits="userSpaceOnUse" id="mask-4_1_"><g filter="url(#Adobe_OpacityMaskFilter_1_)"><path id="path-3_1_" class="st2" d="M14.4 20H0V4.4h14.4z"/></g></mask><path id="Fill-6" d="M7.8 19.2c-.2 0-.4 0-.5-.1-1.1-.1-1.9-1.1-1.9-2.2 0-1.3 1.1-2.3 2.4-2.3 1.3 0 2.4 1 2.4 2.3-.1 1.3-1.1 2.3-2.4 2.3zM.4 5.2c6.1 0 11.3 0 12.9 5.6.3 1.2 1 4.4-.9 6.6a8 8 0 0 1-2.1 1.5c.4-.5.7-1.2.7-1.9 0-1.7-1.4-3.1-3.1-3.1-1.7 0-3.1 1.4-3.1 3.1 0 1.4 1 2.6 2.3 3h.7c1.9 0 3.9-.8 5.1-2.2 1.5-1.7 1.9-4.4 1.1-7.3-1.7-6-7.2-6.1-13.2-6.1H0v.7h.4z" mask="url(#mask-4_1_)" fill="#e7e3f1"/></g></g></g></g></svg>